<?xml version="1.0" encoding="UTF-8"?>
<svg xmlns="http://www.w3.org/2000/svg" version="1.1" id="Layer_1" x="0px" y="0px" viewBox="0 0 1150 1450" style="enable-background:new 0 0 1150 1450;" xml:space="preserve">
    <style type="text/css">
        .st0{fill:#D1D3D4;}
        .st1{filter:url(#filter-3);}
        .st2{fill-rule:evenodd;clip-rule:evenodd;}
        .st3{fill-rule:evenodd;clip-rule:evenodd;fill:url(#path-2_00000090995507327034007410000000414460788678118283_);}
        .st4{fill:#16A649;}
        .st5{fill-rule:evenodd;clip-rule:evenodd;fill:#D1D3D4;}
        .st6{fill-rule:evenodd;clip-rule:evenodd;fill:url(#Combined-Shape_00000038414333652618959120000003945422266557693886_);}
    </style>
    <defs>
        <filter filterUnits="objectBoundingBox" height="200%" id="filter-3" width="200%" x="-50%" y="-50%">
            <feOffset dx="0" dy="20" in="SourceAlpha" result="shadowOffsetOuter1"></feOffset>
            <feGaussianBlur in="shadowOffsetOuter1" result="shadowBlurOuter1" stdDeviation="15"></feGaussianBlur>
            <feColorMatrix in="shadowBlurOuter1" type="matrix" values="0 0 0 0 0   0 0 0 0 0   0 0 0 0 0  0 0 0 0.2 0"></feColorMatrix>
        </filter>
    </defs>
    <g>
        <path class="st0" d="M54.3,1409.8c-2.5,0-4.2-0.5-5-1.6c-0.8-1.1-1.2-2.5-1.2-4.3v-167.4c0-1.8,0.4-3.2,1.2-4.3     c0.8-1.1,2.4-1.6,4.7-1.6h58.9c15.7,0,28.6,2.4,38.9,7.3c10.3,4.9,18.4,11.3,24.3,19.4c5.9,8.1,10.1,17.5,12.6,28.3     s3.6,22.1,3.6,34c0,12.1-1.2,23.5-3.5,34.4c-2.3,10.9-6.5,20.5-12.4,28.8c-5.9,8.3-14,14.8-24.3,19.7     c-10.3,4.9-23.3,7.3-39.1,7.3H54.3z M147.7,1321.5c0-19.1-3.1-33-9.2-41.8c-6.1-8.8-15.7-13.2-28.6-13.2H90.8v107.5H108     c6.1,0,11.6-0.9,16.5-2.8s9-4.9,12.4-9c3.4-4.1,6.1-9.5,8-16.2C146.8,1339.1,147.7,1331,147.7,1321.5z"></path>
        <path class="st0" d="M329.6,1341.2c0,7.4-0.5,15.2-1.6,23.5c-1.1,8.3-3.8,15.9-8.1,23c-4.3,7-10.8,12.8-19.3,17.4     c-8.6,4.6-20.2,6.9-35,6.9c-14.6,0-26-2.3-34.2-6.9c-8.2-4.6-14.4-10.4-18.5-17.4c-4.1-7-6.7-14.7-7.7-23     c-1-8.3-1.5-16.1-1.5-23.5c0-6.1,0.6-13,1.9-20.8c1.3-7.7,4-15.1,8.2-22c4.2-6.9,10.4-12.7,18.6-17.4c8.2-4.7,19.2-7,33.1-7     c13.9,0,25,2,33.5,6.1c8.5,4.1,14.9,9.3,19.4,15.8c4.5,6.5,7.5,13.7,8.9,21.7C328.9,1325.6,329.6,1333.5,329.6,1341.2z      M287.5,1342.8c0-11.3-1.3-19.8-3.9-25.4c-2.6-5.6-8.4-8.4-17.4-8.4c-8.3,0-13.8,2.9-16.6,8.6c-2.8,5.8-4.2,14.1-4.2,25.1     c0,11.9,1.4,20.5,4,25.9c2.7,5.4,8.1,8.1,16.2,8.1c9,0,14.9-2.8,17.7-8.4C286.1,1362.9,287.5,1354.3,287.5,1342.8z"></path>
        <path class="st0" d="M540.7,1408c-0.6,1.2-2.1,1.8-4.5,1.8h-29.7c-2.3,0-3.9-0.5-4.7-1.5c-0.8-1-1.2-2.4-1.2-4.2v-71     c0-8.3-1.3-13.8-3.8-16.5c-2.5-2.7-6.3-4-11.3-4c-3.2,0-7.2,0.9-11.9,2.6c-4.7,1.7-8.7,3.5-12.1,5.3v83.7c0,1.4-0.3,2.7-0.9,3.9     c-0.6,1.2-2.2,1.8-4.7,1.8h-29.7c-2.2,0-3.6-0.5-4.5-1.5c-0.8-1-1.2-2.4-1.2-4.2v-71.8c0-7.6-1.2-12.7-3.7-15.5     c-2.4-2.8-6.1-4.2-11-4.2c-3.3,0-7.2,0.8-11.8,2.4c-4.6,1.6-8.8,3.4-12.6,5.4v83.7c0,1.4-0.4,2.7-1.1,3.9     c-0.7,1.2-2.3,1.8-4.8,1.8h-29.5c-2.1,0-3.6-0.5-4.4-1.5c-0.8-1-1.2-2.4-1.2-4.2v-121.5c0-1.8,0.4-3.2,1.2-4.3     c0.8-1.1,2.3-1.6,4.4-1.6h29.5c2.5,0,4.1,0.6,4.8,1.9c0.7,1.3,1.1,2.6,1.1,4v6.2l0.5,0.3c5.8-4.7,12.1-8.3,18.9-10.9     c6.8-2.6,13.8-3.9,20.8-3.9c8.1,0,15.2,1.5,21.3,4.5c6.1,3,10.6,7.6,13.5,13.9c6.3-5.2,13.5-9.6,21.5-13.1     c8-3.5,16.1-5.3,24.2-5.3c9.5,0,17,1.6,22.3,4.7c5.3,3.2,9.3,7.2,11.9,12.3c2.6,5,4.2,10.7,4.7,17c0.5,6.3,0.8,12.6,0.8,18.9v77     C541.6,1405.5,541.3,1406.8,540.7,1408z"></path>
        <path class="st0" d="M599.5,1241.3c0,2.5-0.3,5-0.8,7.4c-0.5,2.4-1.6,4.6-3.1,6.5c-1.5,1.9-3.7,3.4-6.5,4.6     c-2.8,1.2-6.4,1.8-10.9,1.8c-4.7,0-8.5-0.6-11.3-1.8c-2.9-1.2-5.1-2.7-6.6-4.7c-1.5-2-2.5-4.1-3-6.5c-0.5-2.3-0.7-4.8-0.7-7.3     c0-5.6,1.4-10.3,4.3-14.2c2.9-3.9,8.6-5.8,17.3-5.8c4.3,0,7.9,0.5,10.7,1.5c2.8,1,5,2.4,6.6,4.2c1.6,1.8,2.7,3.9,3.2,6.3     C599.2,1235.8,599.5,1238.4,599.5,1241.3z M598.1,1403.8c0,1.4-0.3,2.8-0.9,4.1c-0.6,1.3-2.1,1.9-4.5,1.9H563     c-2.3,0-3.9-0.5-4.7-1.6c-0.8-1.1-1.2-2.5-1.2-4.3v-121.5c0-2,0.4-3.5,1.2-4.5c0.8-1,2.4-1.5,4.7-1.5h29.7c2.3,0,3.8,0.7,4.5,2     c0.6,1.4,0.9,2.7,0.9,3.9V1403.8z"></path>
        <path class="st0" d="M674.6,1412.2c-2.9,0-6.5-0.1-10.8-0.4c-4.3-0.3-8.9-0.7-13.8-1.4c-4.9-0.6-9.8-1.5-14.7-2.6     c-5-1.1-9.6-2.4-13.9-4.1c-4.5-1.8-7-3.5-7.6-5.1c-0.5-1.6-0.5-3.7,0-6.2l3.2-15.7c0.9-3.6,2-5.6,3.2-5.9     c1.3-0.4,3.7-0.3,7.3,0.3c3.2,0.4,6.8,0.8,10.8,1.2c4,0.5,8,0.9,12.2,1.2c4.1,0.4,8.3,0.7,12.4,0.9c4.1,0.3,8.1,0.4,11.9,0.4     c9.2,0,15.9-1.4,20.1-4.3c4.2-2.9,6.3-7.2,6.3-13c0-3.2-0.5-5.9-1.3-8c-0.9-2.1-2.4-3.8-4.5-5.3c-2.1-1.4-4.7-2.7-7.8-3.6     c-3.2-1-7-1.9-11.5-2.8c-7.7-1.6-15.4-3.6-22.9-5.8c-7.6-2.2-14.3-5.4-20.2-9.3c-5.9-4-10.8-9.1-14.4-15.4     c-3.7-6.3-5.5-14.3-5.5-24c0-8.8,1.5-16.6,4.6-23.5c3.1-6.8,7.4-12.6,13.1-17.1c5.7-4.6,12.6-8.1,20.7-10.5     c8.1-2.4,17.1-3.6,27-3.6c2.5,0,5.8,0,9.9,0.1c4,0.1,8.5,0.4,13.2,0.9c4.8,0.5,9.6,1.3,14.6,2.4c4.9,1.1,9.6,2.5,13.9,4.3     c4.5,1.6,7,3.3,7.6,5c0.5,1.7,0.6,3.8,0.3,6.3l-3.8,15.9c-0.4,1.8-0.8,3.1-1.3,3.9c-0.5,0.8-1.3,1.4-2.2,1.6     c-0.9,0.3-2,0.4-3.4,0.3c-1.3-0.1-2.9-0.2-4.7-0.4c-6.1-0.9-12.4-1.6-18.8-2.2c-6.4-0.5-13.7-0.8-22-0.8     c-7.9,0-13.8,1.3-17.7,3.8c-3.9,2.5-5.8,6.7-5.8,12.4c0,2.9,0.4,5.2,1.2,7c0.8,1.8,2.2,3.3,4.1,4.6c1.9,1.3,4.4,2.3,7.4,3.1     c3.1,0.8,6.8,1.7,11.3,2.6c7.7,1.6,15.4,3.5,23,5.7c7.6,2.2,14.3,5.2,20.2,9.2c5.9,4,10.8,9.2,14.4,15.8     c3.7,6.6,5.5,15.2,5.5,25.8c0,10.6-2,19.5-5.9,26.7c-4,7.2-9.2,13-15.8,17.3c-6.6,4.3-14.1,7.4-22.7,9.3     C692.3,1411.3,683.6,1412.2,674.6,1412.2z"></path>
        <path class="st0" d="M850.6,1331.7l20.5-42.4l26.2-52.4c1.3-2.2,2.6-3.8,4-5c1.4-1.2,4-1.8,7.6-1.8h22.1c2.5,0,4,0.7,4.6,2     c0.5,1.4,0.8,2.7,0.8,3.9v167.7c0,1.4-0.3,2.8-0.8,4.1c-0.5,1.3-2.1,1.9-4.6,1.9h-30.2c-2.3,0-3.9-0.5-4.7-1.6     c-0.8-1.1-1.2-2.5-1.2-4.3v-82.6l-0.8-0.3l-9.4,21.1l-17,34.8c-1.3,2.2-2.7,3.9-4.3,5.1c-1.6,1.3-4,1.9-7,1.9H843     c-3.2,0-5.6-0.6-7.2-1.8c-1.5-1.2-2.9-2.7-4.2-4.7l-17.6-36.2l-9.4-20.5l-0.5,0.3v82.9c0,1.4-0.3,2.8-0.9,4.1     c-0.6,1.3-2.2,1.9-4.7,1.9h-30.2c-2.2,0-3.6-0.5-4.5-1.6s-1.2-2.5-1.2-4.3v-167.7c0-1.6,0.4-3,1.2-4.2c0.8-1.2,2.3-1.8,4.5-1.8     h23.2c3.6,0,6.2,0.5,7.7,1.5c1.5,1,2.9,2.7,4.2,5l26.2,53.2l20,41.8H850.6z"></path>
        <path class="st0" d="M1004.1,1403.8c0,1.4-0.3,2.8-0.9,4.1c-0.6,1.3-2.2,1.9-4.7,1.9h-31.3c-4,0-5.9-2-5.9-5.9v-167.7     c0-1.6,0.4-3,1.2-4.2c0.8-1.2,2.4-1.8,4.7-1.8h62.6c8.5,0,16.4,1.2,23.8,3.5c7.4,2.3,13.9,5.8,19.4,10.4     c5.6,4.6,9.9,10.4,13.1,17.4c3.1,7,4.7,15.2,4.7,24.6c0,6.3-0.9,12.8-2.6,19.6c-1.7,6.8-4.8,13-9.3,18.6     c-4.5,5.7-10.7,10.4-18.6,14c-7.9,3.7-18.1,5.5-30.5,5.5h-25.7V1403.8z M1046.8,1287.2c0-7.2-2.1-12.5-6.3-15.9     c-4.2-3.4-9.9-5.1-16.9-5.1h-19.4v42.9h20c7,0,12.6-1.8,16.6-5.4C1044.8,1300.1,1046.8,1294.6,1046.8,1287.2z"></path>
    </g>
    <g id="Logo-2_00000139294259798876540780000014702816247298430350_">
        <g id="Domibus_logo_icon_2_00000163792379194473392450000012194212458687173786_">
            <g id="Group-2_00000142881346159597235920000015977444324486069433_" transform="translate(94.000000, 111.000000)">
                <g id="D_00000062901120920470764530000009793373610955990433_">
                    <g class="st1">
                        <path id="path-2_00000096054840819273184880000011341841330119748754_" class="st2" d="M-50.7,1090.6c0,16.6,13.4,30,30,30         h381.3c372.2,0,615.2-224.3,615.2-605S732.7-86,360.5-86H-20.7c-16.6,0-30,13.4-30,30V1090.6z"></path>
                    </g>
                    <g>

                        <linearGradient id="path-2_00000114058876892928042420000014911247890883673774_" gradientUnits="userSpaceOnUse" x1="-1482.1952" y1="1274.5826" x2="-1482.1952" y2="1273.5826" gradientTransform="matrix(1026.424 0 0 -1206.558 1521823.125 1537771.875)">
                            <stop offset="0" style="stop-color:#45B86D"></stop>
                            <stop offset="1" style="stop-color:#16A649"></stop>
                        </linearGradient>

                        <path id="path-2_00000027562528893828484510000011407111472533212078_" style="fill-rule:evenodd;clip-rule:evenodd;fill:url(#path-2_00000114058876892928042420000014911247890883673774_);" d="         M-50.7,1090.6c0,16.6,13.4,30,30,30h381.3c372.2,0,615.2-224.3,615.2-605S732.7-86,360.5-86H-20.7c-16.6,0-30,13.4-30,30         V1090.6z"></path>
                    </g>
                </g>
            </g>
        </g>
    </g>
    <g>
        <path class="st4" d="M49.3,1404.8c-2.5,0-4.2-0.5-5-1.6c-0.8-1.1-1.2-2.5-1.2-4.3v-167.4c0-1.8,0.4-3.2,1.2-4.3     c0.8-1.1,2.4-1.6,4.7-1.6h58.9c15.7,0,28.6,2.4,38.9,7.3c10.3,4.9,18.4,11.3,24.3,19.4c5.9,8.1,10.1,17.5,12.6,28.3     s3.6,22.1,3.6,34c0,12.1-1.2,23.5-3.5,34.4c-2.3,10.9-6.5,20.5-12.4,28.8c-5.9,8.3-14,14.8-24.3,19.7     c-10.3,4.9-23.3,7.3-39.1,7.3H49.3z M142.7,1316.5c0-19.1-3.1-33-9.2-41.8c-6.1-8.8-15.7-13.2-28.6-13.2H85.8v107.5H103     c6.1,0,11.6-0.9,16.5-2.8s9-4.9,12.4-9c3.4-4.1,6.1-9.5,8-16.2C141.8,1334.1,142.7,1326,142.7,1316.5z"></path>
        <path class="st4" d="M324.6,1336.2c0,7.4-0.5,15.2-1.6,23.5c-1.1,8.3-3.8,15.9-8.1,23c-4.3,7-10.8,12.8-19.3,17.4     c-8.6,4.6-20.2,6.9-35,6.9c-14.6,0-26-2.3-34.2-6.9c-8.2-4.6-14.4-10.4-18.5-17.4c-4.1-7-6.7-14.7-7.7-23     c-1-8.3-1.5-16.1-1.5-23.5c0-6.1,0.6-13,1.9-20.8c1.3-7.7,4-15.1,8.2-22c4.2-6.9,10.4-12.7,18.6-17.4c8.2-4.7,19.2-7,33.1-7     c13.9,0,25,2,33.5,6.1c8.5,4.1,14.9,9.3,19.4,15.8c4.5,6.5,7.5,13.7,8.9,21.7C323.9,1320.6,324.6,1328.5,324.6,1336.2z      M282.5,1337.8c0-11.3-1.3-19.8-3.9-25.4c-2.6-5.6-8.4-8.4-17.4-8.4c-8.3,0-13.8,2.9-16.6,8.6c-2.8,5.8-4.2,14.1-4.2,25.1     c0,11.9,1.4,20.5,4,25.9c2.7,5.4,8.1,8.1,16.2,8.1c9,0,14.9-2.8,17.7-8.4C281.1,1357.9,282.5,1349.3,282.5,1337.8z"></path>
        <path class="st4" d="M535.7,1403c-0.6,1.2-2.1,1.8-4.5,1.8h-29.7c-2.3,0-3.9-0.5-4.7-1.5c-0.8-1-1.2-2.4-1.2-4.2v-71     c0-8.3-1.3-13.8-3.8-16.5c-2.5-2.7-6.3-4-11.3-4c-3.2,0-7.2,0.9-11.9,2.6c-4.7,1.7-8.7,3.5-12.1,5.3v83.7c0,1.4-0.3,2.7-0.9,3.9     c-0.6,1.2-2.2,1.8-4.7,1.8h-29.7c-2.2,0-3.6-0.5-4.5-1.5c-0.8-1-1.2-2.4-1.2-4.2v-71.8c0-7.6-1.2-12.7-3.7-15.5     c-2.4-2.8-6.1-4.2-11-4.2c-3.3,0-7.2,0.8-11.8,2.4c-4.6,1.6-8.8,3.4-12.6,5.4v83.7c0,1.4-0.4,2.7-1.1,3.9     c-0.7,1.2-2.3,1.8-4.8,1.8h-29.5c-2.1,0-3.6-0.5-4.4-1.5c-0.8-1-1.2-2.4-1.2-4.2v-121.5c0-1.8,0.4-3.2,1.2-4.3     c0.8-1.1,2.3-1.6,4.4-1.6h29.5c2.5,0,4.1,0.6,4.8,1.9c0.7,1.3,1.1,2.6,1.1,4v6.2l0.5,0.3c5.8-4.7,12.1-8.3,18.9-10.9     c6.8-2.6,13.8-3.9,20.8-3.9c8.1,0,15.2,1.5,21.3,4.5c6.1,3,10.6,7.6,13.5,13.9c6.3-5.2,13.5-9.6,21.5-13.1     c8-3.5,16.1-5.3,24.2-5.3c9.5,0,17,1.6,22.3,4.7c5.3,3.2,9.3,7.2,11.9,12.3c2.6,5,4.2,10.7,4.7,17c0.5,6.3,0.8,12.6,0.8,18.9v77     C536.6,1400.5,536.3,1401.8,535.7,1403z"></path>
        <path class="st4" d="M594.5,1236.3c0,2.5-0.3,5-0.8,7.4c-0.5,2.4-1.6,4.6-3.1,6.5c-1.5,1.9-3.7,3.4-6.5,4.6     c-2.8,1.2-6.4,1.8-10.9,1.8c-4.7,0-8.5-0.6-11.3-1.8c-2.9-1.2-5.1-2.7-6.6-4.7c-1.5-2-2.5-4.1-3-6.5c-0.5-2.3-0.7-4.8-0.7-7.3     c0-5.6,1.4-10.3,4.3-14.2c2.9-3.9,8.6-5.8,17.3-5.8c4.3,0,7.9,0.5,10.7,1.5c2.8,1,5,2.4,6.6,4.2c1.6,1.8,2.7,3.9,3.2,6.3     C594.2,1230.8,594.5,1233.4,594.5,1236.3z M593.1,1398.8c0,1.4-0.3,2.8-0.9,4.1c-0.6,1.3-2.1,1.9-4.5,1.9H558     c-2.3,0-3.9-0.5-4.7-1.6c-0.8-1.1-1.2-2.5-1.2-4.3v-121.5c0-2,0.4-3.5,1.2-4.5c0.8-1,2.4-1.5,4.7-1.5h29.7c2.3,0,3.8,0.7,4.5,2     c0.6,1.4,0.9,2.7,0.9,3.9V1398.8z"></path>
        <path class="st4" d="M669.6,1407.2c-2.9,0-6.5-0.1-10.8-0.4c-4.3-0.3-8.9-0.7-13.8-1.4c-4.9-0.6-9.8-1.5-14.7-2.6     c-5-1.1-9.6-2.4-13.9-4.1c-4.5-1.8-7-3.5-7.6-5.1c-0.5-1.6-0.5-3.7,0-6.2l3.2-15.7c0.9-3.6,2-5.6,3.2-5.9     c1.3-0.4,3.7-0.3,7.3,0.3c3.2,0.4,6.8,0.8,10.8,1.2c4,0.5,8,0.9,12.2,1.2c4.1,0.4,8.3,0.7,12.4,0.9c4.1,0.3,8.1,0.4,11.9,0.4     c9.2,0,15.9-1.4,20.1-4.3c4.2-2.9,6.3-7.2,6.3-13c0-3.2-0.5-5.9-1.3-8c-0.9-2.1-2.4-3.8-4.5-5.3c-2.1-1.4-4.7-2.7-7.8-3.6     c-3.2-1-7-1.9-11.5-2.8c-7.7-1.6-15.4-3.6-22.9-5.8c-7.6-2.2-14.3-5.4-20.2-9.3c-5.9-4-10.8-9.1-14.4-15.4     c-3.7-6.3-5.5-14.3-5.5-24c0-8.8,1.5-16.6,4.6-23.5c3.1-6.8,7.4-12.6,13.1-17.1c5.7-4.6,12.6-8.1,20.7-10.5     c8.1-2.4,17.1-3.6,27-3.6c2.5,0,5.8,0,9.9,0.1c4,0.1,8.5,0.4,13.2,0.9c4.8,0.5,9.6,1.3,14.6,2.4c4.9,1.1,9.6,2.5,13.9,4.3     c4.5,1.6,7,3.3,7.6,5c0.5,1.7,0.6,3.8,0.3,6.3l-3.8,15.9c-0.4,1.8-0.8,3.1-1.3,3.9c-0.5,0.8-1.3,1.4-2.2,1.6     c-0.9,0.3-2,0.4-3.4,0.3c-1.3-0.1-2.9-0.2-4.7-0.4c-6.1-0.9-12.4-1.6-18.8-2.2c-6.4-0.5-13.7-0.8-22-0.8     c-7.9,0-13.8,1.3-17.7,3.8c-3.9,2.5-5.8,6.7-5.8,12.4c0,2.9,0.4,5.2,1.2,7c0.8,1.8,2.2,3.3,4.1,4.6c1.9,1.3,4.4,2.3,7.4,3.1     c3.1,0.8,6.8,1.7,11.3,2.6c7.7,1.6,15.4,3.5,23,5.7c7.6,2.2,14.3,5.2,20.2,9.2c5.9,4,10.8,9.2,14.4,15.8     c3.7,6.6,5.5,15.2,5.5,25.8c0,10.6-2,19.5-5.9,26.7c-4,7.2-9.2,13-15.8,17.3c-6.6,4.3-14.1,7.4-22.7,9.3     C687.3,1406.3,678.6,1407.2,669.6,1407.2z"></path>
        <path class="st4" d="M845.6,1326.7l20.5-42.4l26.2-52.4c1.3-2.2,2.6-3.8,4-5c1.4-1.2,4-1.8,7.6-1.8h22.1c2.5,0,4,0.7,4.6,2     c0.5,1.4,0.8,2.7,0.8,3.9v167.7c0,1.4-0.3,2.8-0.8,4.1c-0.5,1.3-2.1,1.9-4.6,1.9h-30.2c-2.3,0-3.9-0.5-4.7-1.6     c-0.8-1.1-1.2-2.5-1.2-4.3v-82.6l-0.8-0.3l-9.4,21.1l-17,34.8c-1.3,2.2-2.7,3.9-4.3,5.1c-1.6,1.3-4,1.9-7,1.9H838     c-3.2,0-5.6-0.6-7.2-1.8c-1.5-1.2-2.9-2.7-4.2-4.7l-17.6-36.2l-9.4-20.5l-0.5,0.3v82.9c0,1.4-0.3,2.8-0.9,4.1     c-0.6,1.3-2.2,1.9-4.7,1.9h-30.2c-2.2,0-3.6-0.5-4.5-1.6s-1.2-2.5-1.2-4.3v-167.7c0-1.6,0.4-3,1.2-4.2c0.8-1.2,2.3-1.8,4.5-1.8     h23.2c3.6,0,6.2,0.5,7.7,1.5c1.5,1,2.9,2.7,4.2,5l26.2,53.2l20,41.8H845.6z"></path>
        <path class="st4" d="M999.1,1398.8c0,1.4-0.3,2.8-0.9,4.1c-0.6,1.3-2.2,1.9-4.7,1.9h-31.3c-4,0-5.9-2-5.9-5.9v-167.7     c0-1.6,0.4-3,1.2-4.2c0.8-1.2,2.4-1.8,4.7-1.8h62.6c8.5,0,16.4,1.2,23.8,3.5c7.4,2.3,13.9,5.8,19.4,10.4     c5.6,4.6,9.9,10.4,13.1,17.4c3.1,7,4.7,15.2,4.7,24.6c0,6.3-0.9,12.8-2.6,19.6c-1.7,6.8-4.8,13-9.3,18.6     c-4.5,5.7-10.7,10.4-18.6,14c-7.9,3.7-18.1,5.5-30.5,5.5h-25.7V1398.8z M1041.8,1282.2c0-7.2-2.1-12.5-6.3-15.9     c-4.2-3.4-9.9-5.1-16.9-5.1h-19.4v42.9h20c7,0,12.6-1.8,16.6-5.4C1039.8,1295.1,1041.8,1289.6,1041.8,1282.2z"></path>
    </g>
    <g id="Group-7_00000067929487017280736170000015420606275253407386_" transform="translate(252.783728, 351.147271)">
        <path id="Combined-Shape_00000020387801657406628370000008839165578523035278_" class="st5" d="M526.4,420.7v188.8     c0,5.5-3.7,7.5-8.2,4.3L357.5,503.3H50.3c-5.5,0-10-4.5-10-10V41c0-5.5,4.5-10,10-10h466.1c5.5,0,10,4.5,10,10V420.7z      M343.6,228.1c0-33.5-27.1-60.7-60.7-60.7s-60.7,27.1-60.7,60.7c0,22.2,12.6,40.8,30.3,51.4v100.3c0,16.8,13.6,30.3,30.3,30.3     s30.3-13.6,30.3-30.3V279.5C331,269,343.6,250.4,343.6,228.1z"></path>
    </g>
    <g id="Group-7_00000013884621388168510600000012836380883070142374_" transform="translate(252.783728, 351.147271)">

        <linearGradient id="Combined-Shape_00000170275789378055809300000014917459379918601917_" gradientUnits="userSpaceOnUse" x1="-1207.4255" y1="901.2852" x2="-1207.4255" y2="900.2852" gradientTransform="matrix(486.1128 0 0 -584.2837 587228.375 526631.25)">
            <stop offset="0" style="stop-color:#FFFFFF"></stop>
            <stop offset="1" style="stop-color:#E8E8E8"></stop>
        </linearGradient>

        <path id="Combined-Shape_00000178192248165113663240000001698648611011453618_" style="fill-rule:evenodd;clip-rule:evenodd;fill:url(#Combined-Shape_00000170275789378055809300000014917459379918601917_);" d="     M343.6,222.1c0-33.5-27.1-60.7-60.7-60.7s-60.7,27.1-60.7,60.7c0,22.2,12.6,40.8,30.3,51.4v100.3c0,16.8,13.6,30.3,30.3,30.3     s30.3-13.6,30.3-30.3V273.5C331,263,343.6,244.4,343.6,222.1z M526.4,414.7v188.8c0,5.5-3.7,7.5-8.2,4.3L357.5,497.3H50.3     c-5.5,0-10-4.5-10-10V35c0-5.5,4.5-10,10-10h466.1c5.5,0,10,4.5,10,10V414.7z"></path>
    </g>
</svg>
