<svg id="Layer_1" data-name="Layer 1" xmlns="http://www.w3.org/2000/svg" viewBox="0 0 144 136"><defs><style>.cls-1{fill:#fc0;}</style></defs><path class="cls-1" d="M142.00087,50.8183H91.333a2.00948,2.00948,0,0,1-1.91228-1.392L73.9116,1.39053a2.00752,2.00752,0,0,0-3.82113.00128l-15.514,48.157a2.00029,2.00029,0,0,1-1.90837,1.38711L2.00827,50.83124A1.99993,1.99993,0,0,0,.84265,54.45949L33.26459,77.57757l4.73868-14.57931h12.001l-7.256,22.32348a1.973,1.973,0,0,1-.0918.662L27.26164,133.36508a2.00605,2.00605,0,0,0,3.08473,2.24438l10.66912-7.72665L54.95466,84.99765h12.001l-10.24452,31.518L70.81783,106.2993a1.99635,1.99635,0,0,1,1.28429-.36656l15.9054-48.93431h12.001l-18.0843,55.638,31.70069,22.97281a2.00606,2.00606,0,0,0,3.08547-2.2431l-15.368-47.37955a1.99485,1.99485,0,0,1,.73908-2.23962l41.07844-29.30949A1.99511,1.99511,0,0,0,142.00087,50.8183ZM70.85616,72.998h-12.001l7.15051-21.99939h12.001Z"/></svg>