<svg id="Layer_1" data-name="Layer 1" xmlns="http://www.w3.org/2000/svg" viewBox="0 0 526 146"><defs><style>.cls-1{fill:#fc0;}.cls-2{fill:#039;}</style></defs><path class="cls-1" d="M142.4789,50.9162H91.811a2.00947,2.00947,0,0,1-1.91227-1.392L74.38962,1.48843a2.00751,2.00751,0,0,0-3.82112.00129l-15.514,48.157a2.00026,2.00026,0,0,1-1.90836,1.38711L2.4863,50.92914a1.99993,1.99993,0,0,0-1.16563,3.62825l32.422,23.11808L38.4813,63.09616h12.001l-7.256,22.32348a1.97329,1.97329,0,0,1-.0918.662L27.73967,133.463a2.00605,2.00605,0,0,0,3.08473,2.24438l10.66912-7.72665L55.43269,85.09555h12.001l-10.24452,31.518L71.29585,106.3972a1.99636,1.99636,0,0,1,1.28429-.36656L88.48555,57.09633h12.001l-18.0843,55.638L114.103,135.70712a2.00605,2.00605,0,0,0,3.08546-2.2431l-15.368-47.37955a1.99485,1.99485,0,0,1,.73908-2.23962l41.07843-29.30949A1.9951,1.9951,0,0,0,142.4789,50.9162ZM71.33419,73.09588h-12.001l7.15051-21.99939h12.001Z"/><rect class="cls-2" x="176.47803" y="32.0979" width="4" height="104"/><path class="cls-2" d="M230.57569,127.24878a10.31188,10.31188,0,0,1-.04,1.07129H215.73193a6.1844,6.1844,0,0,0,6.31055,5.3584,7.0813,7.0813,0,0,0,5.5166-2.69922l2.10352,2.18262a10.22049,10.22049,0,0,1-7.62012,3.6123,9.36812,9.36812,0,0,1-9.56445-9.64453c0-5.35742,3.65039-9.64453,9.167-9.64453C226.76514,117.48511,230.57569,121.33472,230.57569,127.24878Zm-3.25489-1.707a5.52077,5.52077,0,0,0-5.67578-4.96094,5.68664,5.68664,0,0,0-5.834,4.96094Zm29.06153-3.13477c0,8.0166-5.12012,13.89063-13.73242,13.89063h-7.97657V108.51636h7.97657C251.26221,108.51636,256.38233,114.3894,256.38233,122.407Zm-3.57227,0c0-5.91406-3.57129-10.71582-10.3584-10.71582h-4.44531V133.1228h4.44531C249.23877,133.1228,252.81006,128.32007,252.81006,122.407Zm24.19239,4.8418a10.31188,10.31188,0,0,1-.04,1.07129H262.1587a6.18439,6.18439,0,0,0,6.31054,5.3584,7.08133,7.08133,0,0,0,5.51661-2.69922l2.10351,2.18262a10.22049,10.22049,0,0,1-7.62012,3.6123,9.36892,9.36892,0,0,1-9.56543-9.64453c0-5.35742,3.65137-9.64453,9.168-9.64453C273.1919,117.48511,277.00245,121.33472,277.00245,127.24878Zm-3.25488-1.707a5.52078,5.52078,0,0,0-5.67579-4.96094,5.68664,5.68664,0,0,0-5.834,4.96094Zm6.97558-19.248h3.333v30.00391h-3.333Zm10.15918,3.53223a2.26221,2.26221,0,1,1-2.26269,2.26172A2.28667,2.28667,0,0,1,290.88233,109.82593Zm-1.667,8.13574h3.333v18.33594h-3.333Zm9.57129,0,5.63574,12.42285,5.63575-12.42285h3.41308l-9.168,19.12988-9.168-19.12988Zm33.02344,9.28711a10.31188,10.31188,0,0,1-.04,1.07129H316.96632a6.18439,6.18439,0,0,0,6.31055,5.3584,7.0813,7.0813,0,0,0,5.5166-2.69922l2.10352,2.18262a10.22049,10.22049,0,0,1-7.62012,3.6123,9.36813,9.36813,0,0,1-9.56446-9.64453c0-5.35742,3.6504-9.64453,9.167-9.64453C327.99953,117.48511,331.81007,121.33472,331.81007,127.24878Zm-3.25488-1.707a5.52077,5.52077,0,0,0-5.67578-4.96094,5.68665,5.68665,0,0,0-5.834,4.96094Zm17.53223-7.58008-1.23047,3.0166a4.64736,4.64736,0,0,0-2.10352-.39746c-2.89746,0-4.207,3.0957-4.207,3.0957v12.6211h-3.334V117.96167h3.0957V120.78s1.627-3.29492,5.12012-3.29492A7.66374,7.66374,0,0,1,346.08742,117.96167Zm3.32812,23.89258a4.27,4.27,0,0,0,2.1836.95215c1.46777,0,2.14258-1.03223,2.85742-2.81739l1.42871-3.6123-8.57324-18.415h3.77051l6.42968,14.48633,5.47657-14.48633h3.6123s-9.208,23.17773-9.64453,24.249a5.39085,5.39085,0,0,1-5.08008,3.69141,6.76971,6.76971,0,0,1-3.88965-1.30957Zm39.68555-33.33789h3.09571l10.835,27.78125h-3.49219l-2.89746-7.501H384.65676l-2.89746,7.501H378.187Zm-3.21484,17.10547h9.52539L390.649,113.27808Zm34.94434,7.62011a9.88836,9.88836,0,0,1-7.501,3.53223,9.64663,9.64663,0,0,1,0-19.28906,9.82592,9.82592,0,0,1,7.30274,3.29492l-2.2627,2.02344a6.77616,6.77616,0,0,0-5.04-2.22266c-3.6914,0-6.1123,2.9375-6.1123,6.54883s2.4209,6.54883,6.1123,6.54883a6.72663,6.72663,0,0,0,5.35743-2.62012Zm18.09961,0a9.88836,9.88836,0,0,1-7.501,3.53223,9.64663,9.64663,0,0,1,0-19.28906A9.82592,9.82592,0,0,1,438.732,120.78l-2.2627,2.02344a6.77616,6.77616,0,0,0-5.04-2.22266c-3.6914,0-6.1123,2.9375-6.1123,6.54883s2.4209,6.54883,6.1123,6.54883a6.72663,6.72663,0,0,0,5.35743-2.62012Zm19.251-5.99316a10.31188,10.31188,0,0,1-.04,1.07129H443.33743a6.18439,6.18439,0,0,0,6.31055,5.3584,7.0813,7.0813,0,0,0,5.5166-2.69922l2.10352,2.18262a10.22052,10.22052,0,0,1-7.62012,3.6123,9.36813,9.36813,0,0,1-9.56446-9.64453c0-5.35742,3.65039-9.64453,9.167-9.64453C454.37063,117.48511,458.18118,121.33472,458.18118,127.24878Zm-3.25488-1.707a5.52077,5.52077,0,0,0-5.67578-4.96094,5.68665,5.68665,0,0,0-5.834,4.96094ZM462.271,130.781a7.07209,7.07209,0,0,0,5.55664,2.97656c1.86523,0,3.96875-.79395,3.96875-2.2627,0-1.58691-1.34961-2.38086-4.168-2.93652-3.92871-.79395-6.707-2.3418-6.707-5.79395,0-2.65918,2.65918-5.27929,6.74707-5.27929a9.53128,9.53128,0,0,1,6.78711,2.77832l-2.1836,2.26269a6.73086,6.73086,0,0,0-4.60351-2.02441c-2.3418,0-3.49219,1.15137-3.49219,2.3418,0,1.38867,1.42871,2.14257,4.44434,2.77832,3.49316.7539,6.46972,2.06347,6.46972,5.79394,0,3.53223-3.73047,5.3584-7.26269,5.3584a10.04736,10.04736,0,0,1-7.8584-3.84961Zm17.47656,0a7.07212,7.07212,0,0,0,5.55664,2.97656c1.86524,0,3.96875-.79395,3.96875-2.2627,0-1.58691-1.34961-2.38086-4.168-2.93652-3.92871-.79395-6.707-2.3418-6.707-5.79395,0-2.65918,2.65918-5.27929,6.74707-5.27929a9.53128,9.53128,0,0,1,6.78711,2.77832l-2.18359,2.26269a6.7309,6.7309,0,0,0-4.60352-2.02441c-2.3418,0-3.49219,1.15137-3.49219,2.3418,0,1.38867,1.42871,2.14257,4.44434,2.77832,3.49316.7539,6.46973,2.06347,6.46973,5.79394,0,3.53223-3.73047,5.3584-7.2627,5.3584a10.04736,10.04736,0,0,1-7.8584-3.84961Z"/><path class="cls-2" d="M249.73682,32.0979h9.52441V87.66138h-9.52441V63.76929h-23.7334V87.66138H216.478V32.0979h9.52539V54.72046h23.7334ZM301.19189,63.134V87.66138h-8.81054v-4.7627a15.23151,15.23151,0,0,1-12.38281,5.71485c-7.06446,0-13.57325-4.60352-13.57325-12.62061,0-7.22314,6.58789-12.46191,14.76367-12.46191,6.90528,0,10.47754,2.69873,10.47754,2.69873V64.08667c0-4.92139-4.76269-6.50879-8.09668-6.50879-5.47656,0-11.2705,2.77783-11.2705,2.77783l-3.09571-7.85791a38.09845,38.09845,0,0,1,14.84278-3.41308C294.84131,49.08472,301.19189,54.56128,301.19189,63.134ZM291.6665,76.31079V72.42114a19.01878,19.01878,0,0,0-8.57226-1.90527c-2.9375,0-6.98535,1.27051-6.98535,5.31836,0,3.96875,3.88965,4.8418,6.82617,4.8418A11.15768,11.15768,0,0,0,291.6665,76.31079Zm43.28809-26.03564-3.334,8.57275a10.94092,10.94092,0,0,0-4.52442-.873c-5.79394,0-8.41308,5.08008-8.41308,5.08008V87.66138h-9.5254V50.03687h9.04883v5.477s3.25391-6.4292,10.23926-6.4292A20.47832,20.47832,0,0,1,334.95459,50.27515Zm60.24414,13.17627v24.21h-9.52441v-21.749c0-5.15966-1.98536-7.9375-6.74707-7.9375-5.001,0-7.38282,4.8418-7.38282,4.8418V87.66138H362.02v-21.749c0-5.15966-1.98438-7.9375-6.74707-7.9375-5.001,0-7.38184,4.8418-7.38184,4.8418V87.66138h-9.52539V50.03687h8.88965v5.477a13.0542,13.0542,0,0,1,11.11328-6.4292c9.04883,0,11.668,6.58789,11.668,6.58789s3.17481-6.58789,11.98633-6.58789C389.64307,49.08472,395.19873,54.40259,395.19873,63.45142Zm45.73145,5.39795a20.08458,20.08458,0,1,1-20.082-19.76465A19.786,19.786,0,0,1,440.93018,68.84937Zm-9.6836,0c0-5.874-3.96875-10.87452-10.39844-10.87452s-10.39843,5.00049-10.39843,10.87452c0,5.87353,3.96875,10.87451,10.39843,10.87451S431.24658,74.7229,431.24658,68.84937Zm49.28809-5.55665V87.66138h-9.52442V65.67407c0-5.39746-3.334-7.69922-7.46191-7.69922-4.9209,0-7.46094,4.8418-7.46094,4.8418V87.66138H446.562V50.03687h8.88965v5.477a13.00236,13.00236,0,0,1,11.27148-6.4292C474.02588,49.08472,480.53467,54.2439,480.53467,63.29272Zm6.96582,32.22706s2.54,2.46093,5.001,2.46093c3.25489,0,4.60352-.95312,6.42969-5.55664l1.50781-3.88965L482.103,50.03687h10.55761l12.7002,27.54345,9.92187-27.54345H525.522L507.26514,96.07544c-3.25391,8.25488-8.57227,10.79492-14.12891,10.79492-5.71484,0-10.08008-3.96875-10.08008-3.96875Z"/></svg>
