<?xml version="1.0" encoding="UTF-8" standalone="no"?>
<svg
   xmlns:osb="http://www.openswatchbook.org/uri/2009/osb"
   xmlns:dc="http://purl.org/dc/elements/1.1/"
   xmlns:cc="http://creativecommons.org/ns#"
   xmlns:rdf="http://www.w3.org/1999/02/22-rdf-syntax-ns#"
   xmlns:svg="http://www.w3.org/2000/svg"
   xmlns="http://www.w3.org/2000/svg"
   xmlns:xlink="http://www.w3.org/1999/xlink"
   xmlns:sodipodi="http://sodipodi.sourceforge.net/DTD/sodipodi-0.dtd"
   xmlns:inkscape="http://www.inkscape.org/namespaces/inkscape"
   width="1215"
   height="900"
   viewBox="0 0 1215 900"
   version="1.1"
   id="svg2"
   inkscape:version="0.91 r13725"
   sodipodi:docname="smp_logo_icon.svg">
  <metadata
     id="metadata56">
    <rdf:RDF>
      <cc:Work
         rdf:about="">
        <dc:format>image/svg+xml</dc:format>
        <dc:type
           rdf:resource="http://purl.org/dc/dcmitype/StillImage" />
        <dc:title>Domibus_logo_icon_2</dc:title>
      </cc:Work>
    </rdf:RDF>
  </metadata>
  <sodipodi:namedview
     pagecolor="#ffffff"
     bordercolor="#666666"
     borderopacity="1"
     objecttolerance="10"
     gridtolerance="10"
     guidetolerance="10"
     inkscape:pageopacity="0"
     inkscape:pageshadow="2"
     inkscape:window-width="1855"
     inkscape:window-height="952"
     id="namedview54"
     showgrid="false"
     inkscape:snap-text-baseline="false"
     inkscape:zoom="0.23372157"
     inkscape:cx="-477.99175"
     inkscape:cy="1110.5901"
     inkscape:window-x="65"
     inkscape:window-y="24"
     inkscape:window-maximized="1"
     inkscape:current-layer="g3392" />
  <!-- Generator: Sketch 42 (36781) - http://www.bohemiancoding.com/sketch -->
  <title
     id="title4">Domibus_logo_icon_2</title>
  <desc
     id="desc6">Created with Sketch.</desc>
  <defs
     id="defs8">
    <linearGradient
       id="linearGradient4316"
       osb:paint="solid">
      <stop
         style="stop-color:#000000;stop-opacity:1;"
         offset="0"
         id="stop4318" />
    </linearGradient>
    <linearGradient
       inkscape:collect="always"
       id="linearGradient4253">
      <stop
         style="stop-color:#007ab5;stop-opacity:1"
         offset="0"
         id="stop4255" />
      <stop
         style="stop-color:#00a3f2;stop-opacity:1"
         offset="1"
         id="stop4257" />
    </linearGradient>
    <linearGradient
       x1="556.42615"
       y1="0"
       x2="550.88867"
       y2="1114.4225"
       id="linearGradient-1"
       gradientTransform="scale(0.92233629,1.0842032)"
       gradientUnits="userSpaceOnUse">
      <stop
         stop-color="#00A3F2"
         offset="0%"
         id="stop11" />
      <stop
         stop-color="#007AB5"
         offset="100%"
         id="stop13" />
    </linearGradient>
    <path
       d="m 0,1176.5637 c 0,16.5654 13.434639,29.9943 29.990368,29.9943 l 381.258982,0 c 372.16367,0 615.17465,-224.31782 615.17465,-604.97837 C 1026.424,220.91907 783.41302,0 411.24935,0 L 29.990368,0 C 13.427145,0 0,13.433946 0,29.994348 L 0,1176.5637 Z"
       id="path-2"
       inkscape:connector-curvature="0" />
    <filter
       x="-0.5"
       y="-0.5"
       width="2"
       height="2"
       filterUnits="objectBoundingBox"
       id="filter-3">
      <feOffset
         dx="0"
         dy="20"
         in="SourceAlpha"
         result="shadowOffsetOuter1"
         id="feOffset17" />
      <feGaussianBlur
         stdDeviation="15"
         in="shadowOffsetOuter1"
         result="shadowBlurOuter1"
         id="feGaussianBlur19" />
      <feColorMatrix
         values="0 0 0 0 0   0 0 0 0 0   0 0 0 0 0  0 0 0 0.2 0"
         type="matrix"
         in="shadowBlurOuter1"
         id="feColorMatrix21" />
    </filter>
    <linearGradient
       x1="0.5"
       y1="0.75656396"
       x2="0.5"
       y2="1"
       id="linearGradient-4">
      <stop
         stop-color="#FFFFFF"
         offset="0%"
         id="stop24" />
      <stop
         stop-color="#E8E8E8"
         offset="100%"
         id="stop26" />
    </linearGradient>
    <filter
       x="-0.5"
       y="-0.5"
       width="2"
       height="2"
       filterUnits="objectBoundingBox"
       id="filter-5">
      <feOffset
         dx="0"
         dy="5"
         in="SourceAlpha"
         result="shadowOffsetOuter1"
         id="feOffset29" />
      <feColorMatrix
         values="0 0 0 0 0.771710247   0 0 0 0 0.771710247   0 0 0 0 0.771710247  0 0 0 1 0"
         type="matrix"
         in="shadowOffsetOuter1"
         result="shadowMatrixOuter1"
         id="feColorMatrix31" />
      <feMerge
         id="feMerge33">
        <feMergeNode
           in="shadowMatrixOuter1"
           id="feMergeNode35" />
        <feMergeNode
           in="SourceGraphic"
           id="feMergeNode37" />
      </feMerge>
    </filter>
    <linearGradient
       x1="0.5"
       y1="0"
       x2="0.5"
       y2="1"
       id="linearGradient-6">
      <stop
         stop-color="#FFFFFF"
         offset="0%"
         id="stop40" />
      <stop
         stop-color="#E8E8E8"
         offset="100%"
         id="stop42" />
    </linearGradient>
    <linearGradient
       inkscape:collect="always"
       xlink:href="#linearGradient-6"
       id="linearGradient3388"
       x1="266.47128"
       y1="-1.5554573e-13"
       x2="266.47128"
       y2="532.94257"
       gradientTransform="matrix(0.91212978,0,0,1.0963352,-2147.632,1560.1632)"
       gradientUnits="userSpaceOnUse" />
    <linearGradient
       inkscape:collect="always"
       xlink:href="#linearGradient-6"
       id="linearGradient3390"
       x1="266.47128"
       y1="-266.47128"
       x2="266.47128"
       y2="799.41388"
       gradientTransform="scale(0.9121298,1.0963352)"
       gradientUnits="userSpaceOnUse" />
    <linearGradient
       inkscape:collect="always"
       xlink:href="#linearGradient4253"
       id="linearGradient4259"
       x1="624.67487"
       y1="1398.0498"
       x2="620.3963"
       y2="580.83813"
       gradientUnits="userSpaceOnUse" />
    <filter
       style="color-interpolation-filters:sRGB;"
       inkscape:label="Blur"
       id="filter4364">
      <feGaussianBlur
         stdDeviation="100 100"
         result="fbSourceGraphic"
         id="feGaussianBlur4366" />
      <feColorMatrix
         result="fbSourceGraphicAlpha"
         in="fbSourceGraphic"
         values="0 0 0 -1 0 0 0 0 -1 0 0 0 0 -1 0 0 0 0 1 0"
         id="feColorMatrix4368" />
      <feGaussianBlur
         id="feGaussianBlur4370"
         stdDeviation="100 100"
         result="blur"
         in="fbSourceGraphic" />
    </filter>
    <filter
       inkscape:collect="always"
       style="color-interpolation-filters:sRGB"
       id="filter4584"
       x="-0.069854853"
       width="1.1397097"
       y="-0.10163437"
       height="1.2032687">
      <feGaussianBlur
         inkscape:collect="always"
         stdDeviation="60.137248"
         id="feGaussianBlur4586" />
    </filter>
  </defs>
  <g
     id="Logo-2"
     style="fill:none;fill-rule:evenodd;stroke:none;stroke-width:1"
     transform="translate(0,-528)">
    <g
       id="Domibus_logo_icon_2">
      <g
         id="Group-2"
         transform="translate(94,111)">
        <g
           id="g3392"
           transform="matrix(0.57555164,0,0,0.57555164,652.33593,-40.646655)">
          <g
             style="opacity:0.29600004;fill:#000000;fill-opacity:1;fill-rule:evenodd;stroke:none;stroke-width:1;filter:url(#filter4584)"
             id="D-9"
             transform="translate(-297.6542,-326.09037)">
            <g
               transform="scale(0.78714104,1.2704204)"
               style="font-style:normal;font-weight:normal;font-size:1477.22583008px;line-height:125%;font-family:sans-serif;letter-spacing:0px;word-spacing:0px;fill:#000000;fill-opacity:1;stroke:none;stroke-width:1px;stroke-linecap:butt;stroke-linejoin:miter;stroke-opacity:1"
               id="text4231-0">
              <path
                 style="font-style:normal;font-variant:normal;font-weight:bold;font-stretch:normal;font-family:sans-serif;-inkscape-font-specification:'sans-serif Bold';fill:#000000;fill-opacity:1"
                 d="m 193.35156,586.70898 c -58.82017,0 -103.916348,21.09624 -135.287107,63.28907 -31.370746,42.19283 -47.054687,102.49398 -47.054687,180.90234 0,62.58604 11.219418,112.33907 33.658203,149.25781 22.656667,36.9187 58.384631,63.8162 107.183591,80.6934 l 48.68946,17.4043 c 29.62794,10.5481 49.34312,22.5022 59.14648,35.8632 10.02122,13.3611 15.03125,32.3485 15.03125,56.961 0,27.4253 -7.29646,48.5215 -21.89258,63.289 -14.59611,14.7675 -35.61894,22.1504 -63.06836,22.1504 -27.01371,0 -55.11831,-6.68 -84.31054,-20.041 -28.974391,-13.7127 -59.036563,-33.9302 -90.189458,-60.6523 l 0,171.4082 c 31.152895,18.6351 62.306072,32.6999 93.458988,42.1933 31.1529,9.4934 62.1958,14.2403 93.13086,14.2403 65.5736,0 114.26384,-21.0963 146.07031,-63.2891 8.05941,-10.707 15.10168,-22.8211 21.13281,-36.334 l 0,99.9961 119.27344,0 0,-597.80662 112.41211,440.69142 79.73437,0 112.41211,-440.69142 0,597.80662 118.94727,0 12.54297,0 0,-283.5742 83.00195,0 c 62.088,0 109.6892,-22.9933 142.8027,-68.9785 33.3315,-46.3502 49.9981,-112.40776 49.9981,-198.17385 0,-85.40111 -16.6666,-151.09484 -49.9981,-197.08007 -33.1135,-46.35016 -80.7147,-69.5254 -142.8027,-69.5254 l -95.54492,0 -159.79492,0 -111.75782,437.40822 -111.10546,-437.40822 -160.1211,0 0,419.57422 c -2.32176,-4.509 -4.78581,-8.82987 -7.4082,-12.9414 -22.87451,-35.86393 -61.43442,-62.58566 -115.67969,-80.16602 l -53.5918,-17.4043 c -25.48874,-8.43859 -43.13414,-18.45949 -52.9375,-30.0625 -9.58551,-11.95465 -14.3789,-28.47975 -14.3789,-49.57617 0,-28.12854 7.19009,-48.87329 21.56836,-62.23437 14.37826,-13.36104 36.59846,-20.04102 66.66211,-20.04102 22.65665,0 46.73,4.92261 72.21875,14.76758 25.48874,9.84502 51.62992,24.43505 78.42578,43.77344 l 0,-166.66016 c -30.2815,-13.00944 -59.58152,-22.67889 -87.90235,-29.00781 -28.32082,-6.68053 -55.87992,-10.02149 -82.67578,-10.02149 z"
                 transform="matrix(2.2073091,0,0,1.3676288,-1227.128,170.02736)"
                 id="path4250-8"
                 inkscape:connector-curvature="0"
                 sodipodi:nodetypes="sssccccssscccssccccccccccccscscsccccccscccsssscccs" />
            </g>
            <g
               transform="scale(0.77260486,1.2943227)"
               style="font-style:normal;font-weight:normal;font-size:1505.01916504px;line-height:125%;font-family:sans-serif;letter-spacing:0px;word-spacing:0px;fill:#000000;fill-opacity:1;stroke:none;stroke-width:1px;stroke-linecap:butt;stroke-linejoin:miter;stroke-opacity:1"
               id="text4235-9" />
            <g
               transform="scale(0.77260486,1.2943227)"
               style="font-style:normal;font-weight:normal;font-size:1505.01916504px;line-height:125%;font-family:sans-serif;letter-spacing:0px;word-spacing:0px;fill:#000000;fill-opacity:1;stroke:none;stroke-width:1px;stroke-linecap:butt;stroke-linejoin:miter;stroke-opacity:1"
               id="text4239-3" />
          </g>
          <g
             id="D"
             transform="translate(-330.8087,-386.89162)"
             style="opacity:1">
            <g
               transform="scale(0.78714104,1.2704204)"
               style="font-style:normal;font-weight:normal;font-size:1477.22583008px;line-height:125%;font-family:sans-serif;letter-spacing:0px;word-spacing:0px;fill:#000000;fill-opacity:1;stroke:none;stroke-width:1px;stroke-linecap:butt;stroke-linejoin:miter;stroke-opacity:1"
               id="text4231">
              <path
                 style="font-style:normal;font-variant:normal;font-weight:bold;font-stretch:normal;font-family:sans-serif;-inkscape-font-specification:'sans-serif Bold';fill:url(#linearGradient4259);fill-opacity:1"
                 d="m 193.35156,586.70898 c -58.82017,0 -103.916348,21.09624 -135.287107,63.28907 -31.370746,42.19283 -47.054687,102.49398 -47.054687,180.90234 0,62.58604 11.219418,112.33907 33.658203,149.25781 22.656667,36.9187 58.384631,63.8162 107.183591,80.6934 l 48.68946,17.4043 c 29.62794,10.5481 49.34312,22.5022 59.14648,35.8632 10.02122,13.3611 15.03125,32.3485 15.03125,56.961 0,27.4253 -7.29646,48.5215 -21.89258,63.289 -14.59611,14.7675 -35.61894,22.1504 -63.06836,22.1504 -27.01371,0 -55.11831,-6.68 -84.31054,-20.041 -28.974391,-13.7127 -59.036563,-33.9302 -90.189458,-60.6523 l 0,171.4082 c 31.152895,18.6351 62.306072,32.6999 93.458988,42.1933 31.1529,9.4934 62.1958,14.2403 93.13086,14.2403 65.5736,0 114.26384,-21.0963 146.07031,-63.2891 8.05941,-10.707 15.10168,-22.8211 21.13281,-36.334 l 0,99.9961 119.27344,0 0,-597.80662 112.41211,440.69142 79.73437,0 112.41211,-440.69142 0,597.80662 118.94727,0 12.54297,0 0,-283.5742 83.00195,0 c 62.088,0 109.6892,-22.9933 142.8027,-68.9785 33.3315,-46.3502 49.9981,-112.40776 49.9981,-198.17385 0,-85.40111 -16.6666,-151.09484 -49.9981,-197.08007 -33.1135,-46.35016 -80.7147,-69.5254 -142.8027,-69.5254 l -95.54492,0 -159.79492,0 -111.75782,437.40822 -111.10546,-437.40822 -160.1211,0 0,419.57422 c -2.32176,-4.509 -4.78581,-8.82987 -7.4082,-12.9414 -22.87451,-35.86393 -61.43442,-62.58566 -115.67969,-80.16602 l -53.5918,-17.4043 c -25.48874,-8.43859 -43.13414,-18.45949 -52.9375,-30.0625 -9.58551,-11.95465 -14.3789,-28.47975 -14.3789,-49.57617 0,-28.12854 7.19009,-48.87329 21.56836,-62.23437 14.37826,-13.36104 36.59846,-20.04102 66.66211,-20.04102 22.65665,0 46.73,4.92261 72.21875,14.76758 25.48874,9.84502 51.62992,24.43505 78.42578,43.77344 l 0,-166.66016 c -30.2815,-13.00944 -59.58152,-22.67889 -87.90235,-29.00781 -28.32082,-6.68053 -55.87992,-10.02149 -82.67578,-10.02149 z"
                 transform="matrix(2.2073091,0,0,1.3676288,-1227.128,170.02736)"
                 id="path4250"
                 inkscape:connector-curvature="0"
                 sodipodi:nodetypes="sssccccssscccssccccccccccccscscsccccccscccsssscccs" />
            </g>
            <g
               transform="scale(0.77260486,1.2943227)"
               style="font-style:normal;font-weight:normal;font-size:1505.01916504px;line-height:125%;font-family:sans-serif;letter-spacing:0px;word-spacing:0px;fill:#000000;fill-opacity:1;stroke:none;stroke-width:1px;stroke-linecap:butt;stroke-linejoin:miter;stroke-opacity:1"
               id="text4235" />
            <g
               transform="scale(0.77260486,1.2943227)"
               style="font-style:normal;font-weight:normal;font-size:1505.01916504px;line-height:125%;font-family:sans-serif;letter-spacing:0px;word-spacing:0px;fill:#000000;fill-opacity:1;stroke:none;stroke-width:1px;stroke-linecap:butt;stroke-linejoin:miter;stroke-opacity:1"
               id="text4239" />
          </g>
          <g
             style="fill:url(#linearGradient3390);filter:url(#filter-5)"
             transform="matrix(0.77190154,0,0,0.77190154,1906.5704,-92.812679)"
             id="Group-7">
            <path
               inkscape:connector-curvature="0"
               style="fill:url(#linearGradient3388)"
               id="Combined-Shape"
               d="m -1661.5192,1949.8406 0,188.7792 c 0,5.5205 -3.6833,7.4634 -8.2453,4.327 l -160.6507,-110.4473 -307.2169,0 c -5.5228,0 -9.9999,-4.486 -9.9999,-10.0018 l 0,-452.3328 c 0,-5.5238 4.4829,-10.0017 9.9999,-10.0017 l 466.113,0 c 5.5228,0 9.9999,4.4859 9.9999,10.0017 l 0,379.6757 z m -182.809,-192.5456 c 0,-33.5476 -27.1464,-60.6921 -60.6921,-60.6921 -33.5456,0 -60.692,27.1464 -60.692,60.6921 0,22.2265 12.5651,40.8362 30.346,51.3872 l 0,100.3429 c 0,16.7738 13.5723,30.346 30.346,30.346 16.7738,0 30.346,-13.5722 30.346,-30.346 l 0,-100.3429 c 17.7809,-10.551 30.3461,-29.1607 30.3461,-51.3872 z" />
          </g>
        </g>
      </g>
    </g>
  </g>
</svg>
